<svg width="17" height="18" viewBox="0 0 17 18" fill="none" xmlns="http://www.w3.org/2000/svg">
<g clip-path="url(#clip0_11_34)">
<path d="M4.80118 1.81554H10.1511C10.1511 1.593 10.136 1.37664 10.1542 1.16234C10.1975 0.655442 10.4628 0.294845 10.9177 0.103213C11.3656 -0.0853279 11.7963 -0.0152689 12.1755 0.297936C12.4519 0.527688 12.6072 0.83059 12.6213 1.19737C12.6294 1.39518 12.6224 1.59403 12.6224 1.82172C12.7817 1.82172 12.9239 1.82893 13.0652 1.82069C14.1727 1.75578 14.9685 2.61297 14.9503 3.63913C14.9503 3.66386 14.9574 3.68961 14.9655 3.73804C15.0704 3.73804 15.1763 3.73598 15.2812 3.73804C16.2808 3.76379 16.9949 4.50147 16.9969 5.52454C17.001 7.75509 16.9979 9.98565 16.9979 12.2162C16.9979 13.5216 16.9979 14.8259 16.9979 16.1313C16.9979 17.2553 16.2798 17.9868 15.1773 17.9878C11.4271 17.9878 7.67688 17.9724 3.92768 17.9981C2.84841 18.0053 2.02736 17.2192 2.04753 16.1683C2.04753 16.1498 2.04148 16.1313 2.03341 16.0828C1.95171 16.0828 1.86698 16.0839 1.78125 16.0828C0.718117 16.0684 0.00196629 15.3287 0.000957624 14.2407C-5.10384e-05 11.1354 0.000957624 8.03121 0.000957624 4.92595C0.000957624 4.48911 -0.0010597 4.05124 0.000957624 3.6144C0.00801826 2.58 0.740307 1.83202 1.75401 1.82275C1.92952 1.82172 2.10503 1.82275 2.31281 1.82275C2.31281 1.62596 2.30676 1.43536 2.31382 1.24682C2.33803 0.627625 2.75965 0.134121 3.35174 0.0228514C3.90549 -0.0812068 4.48144 0.236119 4.69729 0.782167C4.75882 0.938769 4.78 1.11701 4.79715 1.287C4.81329 1.457 4.80118 1.63112 4.80118 1.81554ZM2.31281 2.26062C2.13024 2.26062 1.96785 2.26062 1.80646 2.26062C0.963222 2.26474 0.425605 2.81182 0.424596 3.6721C0.424596 7.18844 0.424596 10.7058 0.424596 14.2222C0.424596 15.0969 0.95717 15.6378 1.81655 15.6378C3.99425 15.6378 6.17095 15.6378 8.34865 15.6378C9.95948 15.6378 11.5703 15.6357 13.1812 15.6398C13.5604 15.6398 13.8852 15.5203 14.1505 15.2442C14.4228 14.9619 14.5166 14.6157 14.5166 14.2252C14.5126 10.7089 14.5146 7.19153 14.5146 3.67519C14.5146 3.61749 14.5136 3.5598 14.5106 3.5021C14.4793 2.86951 14.0173 2.35334 13.4041 2.28122C13.1922 2.2565 12.9774 2.26989 12.7636 2.25959C12.6516 2.25443 12.6244 2.30595 12.6264 2.40898C12.6304 2.60164 12.6314 2.79533 12.6213 2.98696C12.587 3.64634 12.0545 4.16869 11.412 4.17694C10.7513 4.18621 10.2056 3.68858 10.1521 3.02096C10.138 2.84169 10.132 2.66036 10.1451 2.48213C10.1582 2.30389 10.0987 2.2565 9.92418 2.2565C8.28813 2.26268 6.65208 2.26062 5.01603 2.26062C4.94845 2.26062 4.88188 2.26062 4.78605 2.26062C4.78605 2.56249 4.81934 2.84272 4.78 3.11266C4.68317 3.77513 4.11428 4.21815 3.46067 4.1759C2.83732 4.13469 2.33803 3.59689 2.31382 2.93442C2.30575 2.71806 2.31281 2.50067 2.31281 2.26165V2.26062Z" fill="black"/>
<path d="M2.31388 2.26043C2.31388 2.49946 2.30682 2.71684 2.31488 2.9332C2.33909 3.59567 2.83838 4.13348 3.46173 4.17469C4.11535 4.21796 4.68423 3.77494 4.78106 3.11144C4.8204 2.84254 4.78712 2.5623 4.78712 2.2594C4.88294 2.2594 4.95052 2.2594 5.01709 2.2594C6.65314 2.2594 8.28919 2.26249 9.92524 2.25528C10.0987 2.25528 10.1582 2.30267 10.1461 2.48091C10.133 2.65915 10.1391 2.84151 10.1532 3.01975C10.2067 3.68737 10.7523 4.18499 11.413 4.17572C12.0555 4.16748 12.5881 3.64513 12.6224 2.98575C12.6325 2.79309 12.6305 2.60042 12.6275 2.40776C12.6254 2.30473 12.6537 2.25219 12.7646 2.25837C12.9785 2.26867 13.1933 2.25528 13.4051 2.28001C14.0184 2.35213 14.4794 2.86933 14.5116 3.50089C14.5147 3.55858 14.5157 3.61628 14.5157 3.67397C14.5157 7.19031 14.5147 10.7077 14.5177 14.224C14.5177 14.6155 14.4239 14.9607 14.1515 15.243C13.8863 15.5181 13.5615 15.6386 13.1822 15.6386C11.5714 15.6345 9.96055 15.6365 8.34971 15.6365C6.17201 15.6365 3.99532 15.6365 1.81761 15.6365C0.958233 15.6365 0.426668 15.0956 0.425659 14.2209C0.425659 10.7046 0.425659 7.18722 0.425659 3.67088C0.425659 2.8106 0.964285 2.26249 1.80753 2.2594C1.96992 2.2594 2.13131 2.2594 2.31388 2.2594V2.26043ZM2.05868 11.9224C2.05868 12.1212 2.05364 12.3211 2.05868 12.5199C2.07281 13.0268 2.39558 13.3668 2.88881 13.3802C3.28421 13.3916 3.68162 13.3916 4.07702 13.3802C4.56824 13.3658 4.89807 13.0186 4.90614 12.5179C4.91219 12.1264 4.91118 11.7338 4.90614 11.3423C4.90009 10.8251 4.55512 10.4759 4.04676 10.4697C3.66952 10.4656 3.29228 10.4656 2.91504 10.4697C2.41272 10.4759 2.07583 10.8128 2.05969 11.3248C2.05364 11.5237 2.05868 11.7235 2.05868 11.9224ZM3.49199 9.10663C3.68061 9.10663 3.86923 9.10972 4.05785 9.10663C4.55613 9.09633 4.89908 8.75016 4.90614 8.24326C4.91219 7.84557 4.9132 7.44685 4.90614 7.04917C4.89706 6.55978 4.56622 6.21361 4.0861 6.19919C3.68364 6.18682 3.28118 6.18785 2.87974 6.19919C2.40566 6.21258 2.07785 6.54536 2.06272 7.03062C2.04961 7.44788 2.0486 7.86618 2.06272 8.28241C2.07987 8.76561 2.41474 9.09118 2.88881 9.10663C3.08954 9.11281 3.29127 9.10766 3.49199 9.10766V9.10663ZM8.89237 11.9378C8.89237 11.7194 8.90044 11.501 8.89036 11.2826C8.86917 10.821 8.54439 10.4862 8.0925 10.4728C7.67794 10.4604 7.26237 10.4594 6.84781 10.4728C6.39291 10.4872 6.05904 10.8427 6.05097 11.3073C6.04391 11.7184 6.04492 12.1295 6.05097 12.5406C6.05803 12.9867 6.35458 13.3411 6.7883 13.3679C7.24523 13.3957 7.70619 13.3957 8.16412 13.3679C8.58574 13.3421 8.87018 13.0093 8.89036 12.5746C8.90044 12.3633 8.89237 12.1511 8.89237 11.9389V11.9378ZM8.89338 7.64982C8.89338 7.44479 8.89944 7.23874 8.89237 7.03371C8.87523 6.54742 8.5575 6.21361 8.08141 6.19816C7.67996 6.18579 7.2765 6.18579 6.87505 6.19816C6.38484 6.21258 6.05601 6.5639 6.05097 7.06359C6.04694 7.4551 6.04694 7.8466 6.05097 8.23914C6.05601 8.73779 6.39089 9.09324 6.87606 9.10457C7.27145 9.11385 7.66786 9.11281 8.06426 9.10457C8.54741 9.09427 8.87624 8.7584 8.89338 8.26593C8.90044 8.0609 8.89439 7.85484 8.89439 7.64982H8.89338ZM10.0453 7.63643C10.0453 7.84145 10.0433 8.04751 10.0453 8.25253C10.0513 8.73264 10.3731 9.08603 10.8421 9.10148C11.2567 9.11591 11.6722 9.11591 12.0868 9.10148C12.5558 9.085 12.8786 8.73161 12.8826 8.2515C12.8867 7.84042 12.8877 7.42934 12.8826 7.01826C12.8766 6.5979 12.5942 6.24349 12.1887 6.2167C11.7076 6.18476 11.2204 6.18476 10.7392 6.2167C10.3348 6.24349 10.0544 6.59996 10.0463 7.01929C10.0422 7.22431 10.0463 7.43037 10.0453 7.6354V7.63643Z" fill="white"/>
<path d="M2.05768 11.9224C2.05768 11.7235 2.05264 11.5237 2.05869 11.3248C2.07483 10.8128 2.41172 10.4759 2.91404 10.4697C3.29128 10.4656 3.66852 10.4656 4.04576 10.4697C4.55412 10.4748 4.89909 10.8251 4.90514 11.3423C4.91018 11.7338 4.91119 12.1264 4.90514 12.5179C4.89808 13.0186 4.56724 13.3668 4.07602 13.3802C3.68062 13.3916 3.28321 13.3916 2.88781 13.3802C2.39558 13.3668 2.07281 13.0268 2.05768 12.5199C2.05163 12.3211 2.05768 12.1212 2.05768 11.9224ZM3.48191 12.9382C3.67053 12.9382 3.85915 12.9382 4.04777 12.9382C4.05988 12.9382 4.07299 12.9382 4.08509 12.9382C4.31003 12.9269 4.45931 12.794 4.46435 12.5684C4.47343 12.1439 4.47343 11.7194 4.46435 11.296C4.45931 11.0662 4.31709 10.924 4.09215 10.9199C3.68365 10.9127 3.27413 10.9127 2.86562 10.9199C2.64271 10.924 2.49746 11.0724 2.49342 11.297C2.48636 11.7143 2.48636 12.1326 2.49342 12.5509C2.49645 12.7847 2.64674 12.931 2.87672 12.9382C3.07744 12.9444 3.27917 12.9393 3.48091 12.9403L3.48191 12.9382Z" fill="black"/>
<path d="M3.491 9.10663C3.29028 9.10663 3.08855 9.11178 2.88782 9.1056C2.41476 9.09118 2.07888 8.76458 2.06173 8.28138C2.04761 7.86412 2.04862 7.44582 2.06173 7.02959C2.07686 6.54433 2.40468 6.21155 2.87875 6.19816C3.2812 6.18682 3.68366 6.18579 4.08511 6.19816C4.56624 6.21258 4.89607 6.55875 4.90515 7.04814C4.91221 7.44582 4.9112 7.84454 4.90515 8.24223C4.89708 8.74913 4.55514 9.09427 4.05686 9.1056C3.86824 9.10972 3.67962 9.1056 3.491 9.1056V9.10663ZM3.48193 8.65949C3.68366 8.65949 3.88438 8.66464 4.08612 8.65846C4.32113 8.65125 4.46336 8.51216 4.4684 8.27108C4.47647 7.86 4.47647 7.44892 4.4684 7.0368C4.46436 6.78645 4.32113 6.64427 4.07502 6.64015C3.67862 6.63396 3.28221 6.63396 2.88581 6.64015C2.64272 6.64427 2.49646 6.79263 2.49344 7.03783C2.48739 7.44273 2.48839 7.84763 2.49344 8.25253C2.49646 8.5101 2.6407 8.65228 2.8969 8.65846C3.09157 8.66361 3.28726 8.65846 3.48193 8.65846V8.65949Z" fill="black"/>
<path d="M8.89137 11.9378C8.89137 12.1501 8.89944 12.3623 8.88935 12.5735C8.86918 13.0083 8.58474 13.3411 8.16312 13.3668C7.70619 13.3947 7.24523 13.3957 6.7873 13.3668C6.35358 13.34 6.05703 12.9856 6.04997 12.5395C6.04392 12.1284 6.04291 11.7174 6.04997 11.3063C6.05804 10.8416 6.3919 10.4872 6.84681 10.4718C7.26137 10.4584 7.67694 10.4594 8.0915 10.4718C8.54338 10.4851 8.86817 10.82 8.88935 11.2816C8.89944 11.5 8.89137 11.7184 8.89137 11.9368V11.9378ZM8.4637 11.9265C8.4637 11.7205 8.46874 11.5154 8.46269 11.3094C8.45563 11.0745 8.3124 10.922 8.08242 10.9179C7.67997 10.9096 7.27751 10.9107 6.87405 10.9179C6.63802 10.922 6.49176 11.0611 6.48571 11.3001C6.47562 11.7174 6.47562 12.1357 6.48571 12.5529C6.49176 12.793 6.64104 12.9331 6.87304 12.9362C7.26944 12.9413 7.66585 12.9413 8.06225 12.9362C8.31139 12.9331 8.45664 12.7806 8.46269 12.5241C8.46672 12.3252 8.46269 12.1253 8.46269 11.9265H8.4637Z" fill="black"/>
<path d="M8.89234 7.65085C8.89234 7.85588 8.8984 8.06193 8.89134 8.26696C8.87419 8.75943 8.54436 9.0953 8.06222 9.1056C7.66682 9.11384 7.27041 9.11488 6.87401 9.1056C6.38884 9.09324 6.05397 8.73779 6.04892 8.24017C6.04489 7.84866 6.04489 7.45716 6.04892 7.06462C6.05397 6.56494 6.38279 6.21258 6.873 6.19919C7.27546 6.18785 7.67791 6.18682 8.07936 6.19919C8.55545 6.21361 8.87318 6.54742 8.89033 7.03474C8.89739 7.23977 8.89134 7.44582 8.89134 7.65085H8.89234ZM7.47618 6.64015C7.28756 6.64015 7.09894 6.64015 6.91032 6.64015C6.89822 6.64015 6.88511 6.64015 6.873 6.64118C6.63899 6.65457 6.49173 6.78748 6.48568 7.02753C6.47559 7.44479 6.47559 7.86309 6.48568 8.28035C6.49173 8.5204 6.63899 8.65743 6.87502 8.66052C7.27142 8.6667 7.66783 8.66567 8.06322 8.66052C8.31438 8.65743 8.45862 8.50701 8.46165 8.24841C8.46568 7.84969 8.46669 7.45201 8.46165 7.05329C8.45862 6.79881 8.31035 6.64942 8.0602 6.64221C7.86553 6.63706 7.66985 6.64118 7.47517 6.64118L7.47618 6.64015Z" fill="black"/>
<path d="M10.0443 7.63746C10.0443 7.43243 10.0413 7.22638 10.0443 7.02135C10.0534 6.60203 10.3328 6.24555 10.7372 6.21876C11.2184 6.18682 11.7056 6.18682 12.1867 6.21876C12.5922 6.24555 12.8746 6.59997 12.8806 7.02032C12.8867 7.4314 12.8857 7.84248 12.8806 8.25356C12.8756 8.73367 12.5528 9.08706 12.0848 9.10354C11.6702 9.11797 11.2547 9.11797 10.8401 9.10354C10.3711 9.08706 10.0493 8.73367 10.0433 8.25459C10.0403 8.04957 10.0433 7.84351 10.0433 7.63849L10.0443 7.63746ZM11.4705 8.66052C11.647 8.66052 11.8226 8.66052 11.9991 8.66052C12.0112 8.66052 12.0243 8.66052 12.0364 8.66052C12.2986 8.65228 12.452 8.5101 12.456 8.24532C12.4631 7.8466 12.4631 7.44789 12.456 7.0502C12.451 6.79675 12.2976 6.64427 12.0495 6.64015C11.6592 6.635 11.2698 6.635 10.8795 6.64015C10.6303 6.64324 10.475 6.79366 10.4699 7.04608C10.4619 7.45098 10.4619 7.85588 10.4699 8.26078C10.475 8.50495 10.6273 8.65228 10.8653 8.65949C11.0661 8.66568 11.2678 8.66052 11.4695 8.66052H11.4705Z" fill="black"/>
<path d="M3.48189 12.9382C3.28016 12.9382 3.07943 12.9424 2.8777 12.9372C2.64772 12.931 2.49743 12.7837 2.49441 12.5498C2.48836 12.1326 2.48836 11.7143 2.49441 11.296C2.49844 11.0714 2.64369 10.923 2.8666 10.9189C3.27511 10.9107 3.68463 10.9107 4.09314 10.9189C4.31807 10.923 4.4613 11.0652 4.46533 11.2949C4.4734 11.7194 4.47441 12.1439 4.46533 12.5673C4.46029 12.793 4.31 12.9259 4.08608 12.9372C4.07397 12.9372 4.06086 12.9372 4.04876 12.9372C3.86014 12.9372 3.67152 12.9372 3.4829 12.9372L3.48189 12.9382Z" fill="white"/>
<path d="M3.4819 8.66052C3.28722 8.66052 3.09154 8.66464 2.89687 8.66052C2.64067 8.65434 2.49643 8.51216 2.49341 8.25459C2.48836 7.84969 2.48836 7.44479 2.49341 7.03989C2.49643 6.79469 2.64269 6.64633 2.88578 6.64221C3.28218 6.63602 3.67859 6.63602 4.07499 6.64221C4.3211 6.64633 4.46332 6.78851 4.46837 7.03886C4.47543 7.44994 4.47543 7.86103 4.46837 8.27314C4.46332 8.51422 4.3211 8.65331 4.08608 8.66052C3.88536 8.6667 3.68363 8.66155 3.4819 8.66155V8.66052Z" fill="white"/>
<path d="M8.46367 11.9265C8.46367 12.1254 8.46771 12.3252 8.46367 12.5241C8.45762 12.7806 8.31237 12.9331 8.06323 12.9362C7.66683 12.9413 7.27042 12.9413 6.87402 12.9362C6.64203 12.9331 6.49274 12.793 6.48669 12.5529C6.4766 12.1357 6.4766 11.7174 6.48669 11.3001C6.49274 11.0611 6.639 10.921 6.87503 10.9179C7.27748 10.9117 7.68095 10.9107 8.0834 10.9179C8.31338 10.922 8.45661 11.0745 8.46367 11.3094C8.46972 11.5144 8.46468 11.7205 8.46468 11.9265H8.46367Z" fill="white"/>
<path d="M7.47621 6.63912C7.67089 6.63912 7.86657 6.63499 8.06124 6.64014C8.31139 6.64736 8.45966 6.79675 8.46269 7.05123C8.46773 7.44994 8.46773 7.84763 8.46269 8.24635C8.45966 8.50495 8.31542 8.65537 8.06426 8.65846C7.66786 8.66361 7.27145 8.66361 6.87606 8.65846C6.64003 8.65537 6.49277 8.51834 6.48672 8.27829C6.47562 7.86103 6.47562 7.44273 6.48672 7.02547C6.49277 6.78541 6.63902 6.65354 6.87404 6.63912C6.88615 6.63912 6.89926 6.63808 6.91136 6.63808C7.09998 6.63808 7.2886 6.63808 7.47722 6.63808L7.47621 6.63912Z" fill="white"/>
<path d="M11.4715 8.66052C11.2698 8.66052 11.0691 8.66465 10.8673 8.65949C10.6293 8.65228 10.476 8.50598 10.4719 8.26078C10.4639 7.85588 10.4639 7.45098 10.4719 7.04608C10.477 6.79469 10.6323 6.64427 10.8815 6.64015C11.2718 6.635 11.6611 6.635 12.0515 6.64015C12.2986 6.64324 12.4529 6.79572 12.458 7.0502C12.4661 7.44892 12.4651 7.84763 12.458 8.24532C12.4529 8.5101 12.3006 8.65228 12.0384 8.66052C12.0263 8.66052 12.0132 8.66052 12.0011 8.66052C11.8246 8.66052 11.649 8.66052 11.4725 8.66052H11.4715Z" fill="white"/>
</g>
<defs>
<clipPath id="clip0_11_34">
<rect width="17" height="18" fill="white"/>
</clipPath>
</defs>
</svg>
