<svg width="19" height="21" viewBox="0 0 19 21" fill="none" xmlns="http://www.w3.org/2000/svg">
<path d="M14.2953 13.2891C14.5329 13.4106 14.7418 13.5258 14.9581 13.6231C15.0126 13.6478 15.1047 13.6386 15.1575 13.6064C16.7095 12.6651 18.6121 13.5315 18.953 15.3433C19.0783 16.0089 18.9412 16.6422 18.6823 17.2525C18.279 18.2024 17.6335 18.9664 16.8719 19.6239C16.418 20.0154 15.9186 20.3527 15.4344 20.7068C15.1783 20.8939 14.9126 20.8859 14.6508 20.7051C14.4009 20.5329 14.1486 20.3648 13.8908 20.1904C13.8712 20.2048 13.8453 20.2174 13.8273 20.2376C13.4296 20.6941 12.9286 20.9043 12.3354 20.9037C8.87242 20.9026 5.40943 20.9089 1.94643 20.8997C0.789294 20.8968 0.00176455 20.0632 0.00120283 18.8766C-0.000482324 13.999 -0.000482324 9.12146 0.00120283 4.2439C0.00120283 3.0366 0.80109 2.22021 1.98295 2.21388C2.54242 2.211 3.10245 2.21388 3.65069 2.21388C3.66979 2.1851 3.68327 2.17473 3.68439 2.16264C3.7282 1.63009 3.78494 1.57655 4.31352 1.57655C4.76177 1.57655 5.21002 1.57655 5.68074 1.57655C5.7223 1.05264 5.92284 0.620269 6.35986 0.329527C6.63285 0.146446 6.93449 0.0767827 7.25973 0.0992361C8.01917 0.152203 8.40002 0.558091 8.62583 1.5777C9.04655 1.5777 9.4729 1.5777 9.89868 1.5777C10.5205 1.5777 10.5306 1.58634 10.625 2.21331C10.6952 2.21331 10.7705 2.21331 10.8452 2.21331C11.385 2.21446 11.9248 2.20467 12.4646 2.21849C13.4695 2.2444 14.2627 3.06481 14.293 4.09593C14.2981 4.26117 14.2953 4.4264 14.2953 4.59164C14.2953 7.40752 14.2953 10.2234 14.2953 13.0393V13.2891ZM11.0822 15.4953C11.0963 15.4642 11.1075 15.4458 11.1126 15.4257C11.1232 15.3842 11.13 15.3416 11.139 15.2996C11.3221 14.4141 11.8164 13.7831 12.6286 13.4308C12.7949 13.3588 12.841 13.2776 12.841 13.1032C12.8359 10.2954 12.8376 7.48697 12.837 4.67915C12.837 4.60027 12.837 4.52082 12.8303 4.44252C12.8011 4.12875 12.5556 3.83571 12.2528 3.82362C11.7085 3.80174 11.1625 3.81728 10.6211 3.81728C10.534 4.15523 10.4424 4.22662 10.0936 4.2272C8.13151 4.22778 6.16887 4.22778 4.20679 4.2272C3.85515 4.2272 3.77764 4.16732 3.66136 3.81383C3.13952 3.81383 2.61432 3.80462 2.09023 3.82074C1.96722 3.82477 1.83184 3.89213 1.72793 3.96755C1.50099 4.13221 1.45942 4.38207 1.45942 4.65497C1.46279 8.72708 1.46167 12.7992 1.46167 16.8707C1.46167 17.4309 1.44538 17.9917 1.47122 18.5507C1.47965 18.7355 1.56784 18.9365 1.674 19.0913C1.80769 19.2859 2.03799 19.3055 2.2638 19.3055C5.52289 19.3032 8.78142 19.3043 12.0405 19.3038C12.1107 19.3038 12.1854 19.3124 12.2495 19.2905C12.3826 19.245 12.5095 19.1811 12.6708 19.1115C11.8372 18.1961 11.2019 17.2323 11.0951 15.9761C11.0019 15.9761 10.9193 15.9761 10.8368 15.9761C9.29483 15.9761 7.75292 15.9761 6.21156 15.9761C6.14865 15.9761 6.06945 15.9991 6.02563 15.9686C5.94194 15.911 5.81611 15.8166 5.82285 15.7492C5.83184 15.6594 5.94137 15.569 6.02563 15.5028C6.06608 15.4712 6.14809 15.4953 6.211 15.4953C7.6827 15.4953 9.1544 15.4953 10.6261 15.4953H11.0839H11.0822ZM12.987 19.4258C12.7039 19.7068 12.3775 19.8006 12.0119 19.8006C8.76682 19.7989 5.52233 19.8006 2.27729 19.7972C2.12506 19.7972 1.96722 19.7805 1.82117 19.7379C1.27855 19.579 0.981963 19.1161 0.981401 18.4488C0.981401 14.3911 0.981401 10.3334 0.981401 6.27564C0.981401 5.72236 0.978593 5.16967 0.982525 4.61639C0.988142 3.81843 1.46785 3.32734 2.24246 3.32331C2.64184 3.32101 3.04122 3.32331 3.44117 3.32216C3.52205 3.32216 3.60238 3.31467 3.67933 3.31122V2.69634C3.11986 2.69634 2.57443 2.69634 2.02901 2.69634C1.0606 2.69634 0.480349 3.28358 0.480349 4.27211C0.479225 9.12721 0.479225 13.9817 0.480349 18.8369C0.480349 19.8294 1.05499 20.4138 2.02451 20.4138C5.43751 20.4138 8.85051 20.4138 12.2641 20.4138C12.3551 20.4138 12.4472 20.4184 12.5371 20.4086C12.9263 20.3648 13.2493 20.1979 13.497 19.8743C13.3212 19.7194 13.1623 19.5801 12.9876 19.4258H12.987ZM10.6087 3.32273C10.7019 3.32273 10.7772 3.32273 10.853 3.32273C11.2805 3.32273 11.7085 3.3164 12.136 3.32504C12.6842 3.33597 13.1252 3.67047 13.2623 4.18863C13.3055 4.35213 13.3162 4.52888 13.3162 4.69987C13.3195 7.45127 13.3184 10.2027 13.3184 12.9541C13.3184 13.0445 13.3184 13.1343 13.3184 13.2316C13.5027 13.2229 13.6532 13.216 13.8217 13.208C13.8217 13.1055 13.8217 13.0203 13.8217 12.9351C13.8217 10.9885 13.8217 9.04143 13.8217 7.0949C13.8217 6.13228 13.8268 5.16967 13.82 4.20705C13.8139 3.30373 13.2117 2.69922 12.3309 2.69692C11.8259 2.69577 11.3215 2.69634 10.8165 2.69692C10.7491 2.69692 10.6823 2.70383 10.6081 2.70786V3.32273H10.6087ZM15.0794 16.9836C14.8929 16.485 14.7289 16.0221 14.5435 15.569C14.5042 15.4729 14.3818 15.3405 14.3093 15.3479C14.2149 15.3572 14.0958 15.4723 14.0515 15.5719C13.9189 15.8713 13.8088 16.1822 13.7077 16.4948C13.656 16.6543 13.5858 16.7239 13.4111 16.7118C13.146 16.6934 12.8792 16.709 12.6129 16.7061C12.4461 16.7044 12.3101 16.7533 12.3062 16.9473C12.3023 17.1442 12.4376 17.1937 12.605 17.1926C12.969 17.1903 13.3336 17.1857 13.6976 17.1943C13.8903 17.1989 13.993 17.1149 14.0515 16.9318C14.1172 16.7251 14.2026 16.5242 14.3003 16.2657C14.4728 16.728 14.6154 17.1367 14.7811 17.5357C14.8272 17.6468 14.9272 17.7781 15.0294 17.8103C15.194 17.8616 15.258 17.6917 15.3226 17.5633C15.5007 17.2098 15.6804 16.8564 15.872 16.4792C15.9478 16.6456 15.9928 16.7942 16.0776 16.9133C16.1349 16.994 16.2467 17.0797 16.3371 17.0832C16.7848 17.1005 17.233 17.0918 17.6813 17.0907C17.8386 17.0907 17.9442 17.0089 17.9447 16.8483C17.9447 16.6865 17.8386 16.6082 17.6813 16.6076C17.506 16.6076 17.3313 16.6088 17.1561 16.6059C16.9258 16.6025 16.6449 16.6773 16.4792 16.5685C16.3135 16.4603 16.2601 16.1684 16.1618 15.9548C16.1012 15.8235 16.0444 15.6514 15.881 15.6888C15.7759 15.713 15.6692 15.8379 15.6097 15.945C15.4266 16.2726 15.2659 16.6134 15.0788 16.983L15.0794 16.9836ZM7.14738 2.21331C7.49621 2.21331 7.74561 1.96344 7.74786 1.61167C7.75011 1.27199 7.48498 0.994492 7.153 0.988735C6.81485 0.982977 6.54017 1.26566 6.54241 1.61628C6.54466 1.96517 6.79631 2.21331 7.14682 2.21331H7.14738Z" fill="black"/>
<path d="M11.0818 15.4953H10.624C9.15227 15.4953 7.68057 15.4953 6.20886 15.4953C6.14595 15.4953 6.06394 15.4717 6.0235 15.5028C5.93924 15.569 5.8297 15.6594 5.82072 15.7492C5.81398 15.8166 5.94036 15.911 6.0235 15.9686C6.06731 15.9985 6.14595 15.9761 6.20943 15.9761C7.75134 15.9761 9.29326 15.9761 10.8346 15.9761C10.9172 15.9761 10.9998 15.9761 11.093 15.9761C11.1997 17.2323 11.835 18.1961 12.6686 19.1115C12.5074 19.1811 12.3805 19.2451 12.2473 19.2905C12.1833 19.3124 12.1086 19.3038 12.0384 19.3038C8.77929 19.3038 5.52076 19.3038 2.26167 19.3055C2.03586 19.3055 1.80555 19.2859 1.67186 19.0913C1.5657 18.937 1.47807 18.7355 1.46908 18.5507C1.44324 17.9917 1.45953 17.4309 1.45953 16.8708C1.45953 12.7986 1.46066 8.72652 1.45729 4.65498C1.45729 4.38208 1.49885 4.13222 1.72579 3.96756C1.82971 3.89214 1.96508 3.8242 2.0881 3.82075C2.61274 3.80463 3.13795 3.81384 3.65922 3.81384C3.77606 4.16733 3.85302 4.22721 4.20465 4.22721C6.16673 4.22779 8.12938 4.22779 10.0915 4.22721C10.4403 4.22721 10.5318 4.15524 10.6189 3.81729C11.1604 3.81729 11.7064 3.80175 12.2507 3.82363C12.5535 3.83572 12.7989 4.12876 12.8282 4.44253C12.8355 4.52083 12.8349 4.60028 12.8349 4.67916C12.8349 7.48698 12.8338 10.2954 12.8388 13.1032C12.8388 13.2776 12.7928 13.3588 12.6265 13.4308C11.8143 13.7826 11.3199 14.4141 11.1368 15.2996C11.1278 15.3416 11.1211 15.3842 11.1104 15.4257C11.1054 15.4458 11.0941 15.4643 11.0801 15.4953H11.0818ZM6.90539 6.75811C6.95426 6.88189 6.9874 6.96076 7.01718 7.04079C7.24523 7.64991 7.47104 8.2596 7.70079 8.86815C7.8165 9.17501 8.02041 9.33506 8.29284 9.33218C8.58493 9.32873 8.77423 9.17213 8.88545 8.90039C9.02026 8.56992 9.16013 8.24118 9.3 7.91244C9.32247 7.8589 9.35336 7.80939 9.39212 7.73569C9.45054 7.87272 9.49941 7.97577 9.53873 8.08286C9.66006 8.41448 9.89317 8.56129 10.2358 8.5561C10.6633 8.5492 11.0908 8.55668 11.5182 8.55323C11.8221 8.55092 12.0226 8.36726 12.0255 8.0984C12.0288 7.82666 11.8339 7.64358 11.5267 7.63955C11.1902 7.63494 10.8537 7.63206 10.5178 7.64127C10.3791 7.6453 10.3027 7.60788 10.2527 7.46568C10.1645 7.21639 10.0583 6.97401 9.95047 6.73278C9.84206 6.48982 9.65557 6.35452 9.38931 6.35337C9.12306 6.3528 8.93601 6.48521 8.82591 6.72817C8.72592 6.94925 8.63549 7.17493 8.54056 7.39832C8.47034 7.56413 8.40069 7.72994 8.31755 7.92799C8.2861 7.85487 8.27374 7.82954 8.26363 7.80305C8.00468 7.11448 7.74741 6.42419 7.48509 5.73677C7.38342 5.46963 7.18682 5.32282 6.90371 5.32512C6.62959 5.32743 6.44254 5.47193 6.33806 5.72871C6.28189 5.86746 6.22965 6.00851 6.17628 6.14841C5.82296 7.07476 5.46908 8.00168 5.09891 8.97235C4.96466 8.62059 4.84333 8.30969 4.72761 7.9965C4.6119 7.68273 4.38946 7.53361 4.06647 7.53361C3.64574 7.53361 3.22558 7.53131 2.80485 7.53361C2.47063 7.53591 2.26335 7.7213 2.26897 8.00398C2.27403 8.28033 2.474 8.4519 2.80148 8.45535C3.10256 8.45823 3.40476 8.47032 3.70528 8.45075C3.89515 8.43866 3.97379 8.51292 4.03333 8.68795C4.17488 9.10017 4.34396 9.5026 4.49057 9.91309C4.59505 10.2056 4.77929 10.3863 5.0888 10.4013C5.36629 10.4146 5.57749 10.2407 5.705 9.90849C5.83813 9.5619 5.96789 9.21358 6.10045 8.86642C6.36221 8.17958 6.62453 7.49331 6.90539 6.75753V6.75811ZM3.81313 14.1159C4.08613 14.1159 4.35912 14.1176 4.63268 14.1159C4.91298 14.113 5.03543 13.995 5.03712 13.714C5.04049 13.1544 5.04049 12.5948 5.03712 12.0352C5.03543 11.7698 4.92197 11.6432 4.67032 11.6403C4.11028 11.6334 3.54969 11.6339 2.98966 11.6403C2.73239 11.6432 2.61948 11.7635 2.61724 12.0295C2.61218 12.5891 2.61274 13.1487 2.61724 13.7083C2.61948 13.9944 2.73857 14.113 3.01606 14.1165C3.28231 14.1194 3.548 14.1171 3.81426 14.1171L3.81313 14.1159ZM3.81763 17.7004C4.09793 17.7004 4.37766 17.7027 4.65796 17.6998C4.9141 17.6969 5.03431 17.5812 5.036 17.3204C5.04049 16.7539 5.04049 16.1868 5.036 15.6197C5.03431 15.3543 4.91747 15.2351 4.6647 15.234C4.10467 15.2311 3.54463 15.2311 2.98404 15.234C2.74812 15.2351 2.62117 15.3462 2.6178 15.5806C2.60937 16.1689 2.60993 16.7573 2.61724 17.3457C2.62004 17.5835 2.74362 17.6963 2.97674 17.6998C3.25647 17.7038 3.53677 17.701 3.81707 17.701L3.81763 17.7004ZM8.66133 12.4872C9.48818 12.4872 10.315 12.4872 11.1413 12.4872C11.2042 12.4872 11.2829 12.5079 11.3267 12.4774C11.4042 12.4238 11.5154 12.3352 11.512 12.2661C11.5081 12.1786 11.4132 12.0865 11.3396 12.0156C11.3087 11.9863 11.2317 12.0053 11.1761 12.0053C9.50166 12.0053 7.82717 12.0053 6.15269 12.0053C6.10382 12.0053 6.03754 11.9874 6.00889 12.0133C5.93194 12.0824 5.81903 12.1705 5.81959 12.2505C5.81959 12.3283 5.93418 12.4187 6.01619 12.478C6.05832 12.509 6.13865 12.4866 6.20156 12.4866C7.02111 12.4866 7.84122 12.4866 8.66076 12.4866L8.66133 12.4872ZM6.97561 16.9571C6.68127 16.9571 6.38693 16.96 6.09259 16.956C5.92632 16.9537 5.80892 17.0227 5.80948 17.1972C5.8106 17.3716 5.93025 17.439 6.09483 17.4384C6.68352 17.4361 7.2722 17.4361 7.86088 17.4384C8.02658 17.439 8.14454 17.3688 8.14398 17.1949C8.14342 17.0204 8.02434 16.9531 7.85863 16.9554C7.56429 16.9594 7.26995 16.9565 6.97561 16.9565V16.9571ZM6.97786 13.7434C7.2722 13.7434 7.56654 13.7423 7.86088 13.7434C8.02434 13.744 8.14567 13.6772 8.14455 13.501C8.14342 13.3266 8.02265 13.2581 7.85919 13.2581C7.27051 13.2592 6.68239 13.2586 6.09371 13.2581C5.93025 13.2581 5.81061 13.3272 5.81004 13.5028C5.81004 13.6807 5.93306 13.7446 6.09483 13.7434C6.38917 13.7423 6.68352 13.7434 6.97786 13.7434ZM9.37639 13.7428C9.54435 13.7428 9.71174 13.7451 9.87969 13.7423C10.0252 13.7394 10.1257 13.668 10.1297 13.5125C10.1342 13.3467 10.0319 13.2632 9.87745 13.2609C9.5421 13.2563 9.20675 13.2558 8.87141 13.2609C8.71694 13.2632 8.61639 13.3485 8.62144 13.5143C8.6265 13.6703 8.72817 13.74 8.87309 13.7423C9.04049 13.7451 9.20844 13.7428 9.37639 13.7428ZM9.39324 16.9577C9.21855 16.9577 9.04386 16.956 8.86916 16.9577C8.72143 16.9594 8.62425 17.0348 8.62144 17.1886C8.61807 17.3532 8.71806 17.4355 8.87534 17.4367C9.21069 17.439 9.54603 17.439 9.88138 17.4367C10.0285 17.4355 10.1257 17.3561 10.1291 17.2041C10.1325 17.0394 10.0336 16.9594 9.8752 16.9577C9.71455 16.9565 9.5539 16.9577 9.39324 16.9577Z" fill="white"/>
<path d="M12.9865 19.4258C13.1612 19.5796 13.3202 19.7195 13.496 19.8743C13.2483 20.1979 12.9253 20.3649 12.536 20.4086C12.4461 20.419 12.354 20.4138 12.263 20.4138C8.85002 20.4138 5.43702 20.4138 2.02346 20.4138C1.05394 20.4138 0.479297 19.8294 0.479297 18.8369C0.478174 13.9818 0.478174 9.12724 0.479297 4.27213C0.479297 3.28361 1.05955 2.69694 2.02795 2.69637C2.57338 2.69637 3.11881 2.69637 3.67828 2.69637V3.31124C3.60189 3.3147 3.521 3.32218 3.44011 3.32218C3.04073 3.32333 2.64135 3.32103 2.24141 3.32333C1.4668 3.32736 0.987091 3.81846 0.981473 4.61642C0.977541 5.16911 0.98035 5.72239 0.98035 6.27566C0.98035 10.3334 0.98035 14.3911 0.98035 18.4488C0.98035 19.1161 1.2775 19.579 1.82012 19.7379C1.96617 19.7805 2.12401 19.7972 2.27623 19.7972C5.52128 19.8006 8.76577 19.7989 12.0108 19.8006C12.3759 19.8006 12.7028 19.7068 12.986 19.4258H12.9865Z" fill="white"/>
<path d="M10.6088 3.32275V2.70788C10.6823 2.70385 10.7498 2.69694 10.8172 2.69694C11.3221 2.69579 11.8266 2.69521 12.3316 2.69694C13.2123 2.69924 13.8145 3.30375 13.8207 4.20707C13.8274 5.16968 13.8224 6.1323 13.8224 7.09492C13.8224 9.04145 13.8224 10.9886 13.8224 12.9351C13.8224 13.0203 13.8224 13.1049 13.8224 13.208C13.6538 13.216 13.5033 13.223 13.3191 13.2316C13.3191 13.1343 13.3191 13.0439 13.3191 12.9541C13.3191 10.2027 13.3202 7.45129 13.3168 4.69989C13.3168 4.5289 13.3061 4.35215 13.2629 4.18865C13.1253 3.67049 12.6849 3.33599 12.1366 3.32505C11.7092 3.31699 11.2811 3.32275 10.8537 3.32275C10.7784 3.32275 10.7026 3.32275 10.6093 3.32275H10.6088Z" fill="white"/>
<path d="M15.0795 16.9842C15.266 16.6146 15.4272 16.2737 15.6103 15.9461C15.6699 15.8391 15.7766 15.7141 15.8816 15.6899C16.0451 15.6525 16.1018 15.8247 16.1625 15.9559C16.2608 16.1695 16.3142 16.4608 16.4799 16.5696C16.6461 16.6779 16.9264 16.6036 17.1567 16.6071C17.332 16.6094 17.5067 16.6082 17.682 16.6088C17.8392 16.6088 17.946 16.6871 17.9454 16.8495C17.9454 17.0101 17.8392 17.0918 17.682 17.0918C17.2337 17.093 16.7855 17.1016 16.3378 17.0843C16.2473 17.0809 16.1361 16.9951 16.0782 16.9145C15.9934 16.7953 15.9485 16.6468 15.8727 16.4804C15.6811 16.8581 15.5019 17.211 15.3233 17.5645C15.2587 17.6929 15.1941 17.8627 15.0301 17.8115C14.9278 17.7798 14.8279 17.648 14.7818 17.5369C14.6161 17.1379 14.4734 16.7291 14.301 16.2668C14.2032 16.5253 14.1184 16.7257 14.0521 16.9329C13.9937 17.116 13.8909 17.2001 13.6982 17.1955C13.3343 17.1863 12.9697 17.1914 12.6057 17.1937C12.4383 17.1949 12.3024 17.1454 12.3069 16.9485C12.3108 16.755 12.4467 16.7055 12.6136 16.7072C12.8798 16.7101 13.1466 16.694 13.4118 16.713C13.587 16.7251 13.6567 16.6554 13.7084 16.496C13.8095 16.1833 13.9196 15.8724 14.0521 15.5731C14.0959 15.4735 14.2156 15.3583 14.31 15.3491C14.3824 15.3422 14.5049 15.474 14.5442 15.5702C14.7296 16.0239 14.8936 16.4862 15.0801 16.9847L15.0795 16.9842Z" fill="white"/>
<path d="M7.14745 2.21332C6.79638 2.21332 6.54473 1.96576 6.54304 1.61629C6.5408 1.26567 6.81548 0.982992 7.15363 0.988749C7.48561 0.994506 7.75074 1.27201 7.74849 1.61169C7.74624 1.96288 7.49684 2.21275 7.14801 2.21332H7.14745Z" fill="white"/>
<path d="M6.90533 6.75812C6.62447 7.4939 6.36215 8.18017 6.10039 8.86701C5.96783 9.21417 5.83863 9.56249 5.70494 9.90907C5.57743 10.2413 5.36622 10.4151 5.08874 10.4019C4.77923 10.3869 4.59499 10.2061 4.49051 9.91368C4.34334 9.50319 4.17482 9.10075 4.03327 8.68853C3.97316 8.51409 3.89508 8.43924 3.70522 8.45133C3.40527 8.47033 3.10306 8.45882 2.80142 8.45594C2.4745 8.45248 2.27453 8.28092 2.26891 8.00457C2.26329 7.72189 2.47057 7.5365 2.80479 7.5342C3.22495 7.53132 3.64568 7.53305 4.06641 7.5342C4.3894 7.5342 4.61128 7.68331 4.72755 7.99708C4.84327 8.31028 4.9646 8.62175 5.09885 8.97294C5.46902 8.00227 5.82234 7.07535 6.17622 6.149C6.22959 6.0091 6.28183 5.86805 6.338 5.7293C6.44248 5.47252 6.62953 5.32801 6.90365 5.32571C7.18732 5.32341 7.38336 5.46964 7.48503 5.73736C7.74735 6.42477 8.00405 7.11507 8.26357 7.80364C8.27368 7.83012 8.28604 7.85603 8.31749 7.92857C8.40063 7.73052 8.47028 7.56471 8.54049 7.3989C8.63486 7.17552 8.72586 6.94984 8.82585 6.72876C8.93594 6.48523 9.123 6.35281 9.38925 6.35396C9.65551 6.35453 9.842 6.49041 9.95041 6.73336C10.0583 6.97459 10.1644 7.21697 10.2526 7.46626C10.3026 7.60789 10.379 7.64532 10.5177 7.64186C10.8537 7.63265 11.1907 7.63553 11.5266 7.64013C11.8338 7.64416 12.0282 7.82725 12.0254 8.09899C12.0226 8.36785 11.8215 8.55151 11.5182 8.55381C11.0907 8.55727 10.6632 8.54921 10.2358 8.55669C9.89311 8.56245 9.66 8.41506 9.53867 8.08344C9.49935 7.97636 9.45048 7.8733 9.39206 7.73628C9.3533 7.80997 9.32297 7.85949 9.29994 7.91303C9.16063 8.24177 9.0202 8.57051 8.88539 8.90098C8.77473 9.17329 8.58487 9.32932 8.29278 9.33277C8.02034 9.33623 7.817 9.1756 7.70073 8.86874C7.47098 8.26019 7.24517 7.6505 7.01712 7.04138C6.98734 6.96135 6.9542 6.88248 6.90533 6.7587V6.75812Z" fill="black"/>
<path d="M3.81255 14.1159C3.5463 14.1159 3.2806 14.1182 3.01435 14.1153C2.73686 14.1125 2.61778 13.9939 2.61553 13.7071C2.6116 13.1475 2.61104 12.5879 2.61553 12.0283C2.61778 11.7618 2.73124 11.642 2.98795 11.6391C3.54798 11.6328 4.10858 11.6328 4.66861 11.6391C4.92082 11.642 5.03373 11.7687 5.03541 12.0341C5.03878 12.5937 5.03934 13.1533 5.03541 13.7129C5.03373 13.9939 4.91127 14.1119 4.63097 14.1148C4.35798 14.1171 4.08498 14.1148 3.81143 14.1148L3.81255 14.1159ZM3.63561 12.7975C3.58843 12.7722 3.56483 12.7595 3.54068 12.7474C3.4171 12.6858 3.28173 12.6939 3.23398 12.8223C3.20028 12.9126 3.24184 13.0445 3.28004 13.1464C3.30532 13.2137 3.38115 13.2633 3.43845 13.3151C3.55023 13.4164 3.671 13.4176 3.77772 13.3139C3.95579 13.1412 4.1288 12.9627 4.29844 12.7808C4.39955 12.6726 4.4091 12.5448 4.30349 12.4348C4.19733 12.3248 4.07431 12.3329 3.96758 12.4382C3.85693 12.5476 3.75469 12.6668 3.63561 12.7963V12.7975Z" fill="black"/>
<path d="M3.8176 17.7004C3.53731 17.7004 3.25757 17.7033 2.97727 17.6992C2.74416 17.6958 2.62058 17.5829 2.61777 17.3452C2.61047 16.7568 2.61047 16.1684 2.61834 15.58C2.62171 15.3457 2.74809 15.2345 2.98458 15.2334C3.54461 15.2305 4.10464 15.2305 4.66524 15.2334C4.91801 15.2345 5.03485 15.3543 5.03653 15.6191C5.04047 16.1856 5.04103 16.7527 5.03653 17.3198C5.03429 17.5806 4.91464 17.6964 4.6585 17.6992C4.3782 17.7021 4.09846 17.6998 3.81817 17.6998L3.8176 17.7004ZM3.64235 17.0596C3.66257 17.051 3.71706 17.0435 3.74907 17.0118C3.94455 16.8184 4.1479 16.6295 4.31922 16.4148C4.36584 16.3561 4.34843 16.1736 4.29338 16.1194C4.23665 16.0636 4.08274 16.0601 3.9996 16.0987C3.89793 16.1453 3.82322 16.257 3.74121 16.3445C3.67043 16.42 3.61426 16.4631 3.49405 16.4113C3.33397 16.3417 3.19129 16.4562 3.18679 16.6232C3.18286 16.7844 3.45698 17.0654 3.64235 17.0602V17.0596Z" fill="black"/>
<path d="M8.6613 12.4878C7.84175 12.4878 7.02165 12.4878 6.2021 12.4878C6.13919 12.4878 6.05886 12.5102 6.01673 12.4791C5.93472 12.4192 5.82069 12.3294 5.82013 12.2517C5.82013 12.1717 5.93303 12.0836 6.00943 12.0145C6.03751 11.9892 6.1038 12.0065 6.15323 12.0065C7.82771 12.0065 9.50219 12.0065 11.1767 12.0065C11.2328 12.0065 11.3098 11.9869 11.3401 12.0168C11.4137 12.0876 11.5092 12.1797 11.5126 12.2673C11.5154 12.3369 11.4047 12.425 11.3272 12.4785C11.2834 12.5091 11.2048 12.4883 11.1418 12.4883C10.315 12.4883 9.48815 12.4883 8.66186 12.4883L8.6613 12.4878Z" fill="black"/>
<path d="M6.97552 16.9571C7.26986 16.9571 7.5642 16.96 7.85854 16.956C8.02425 16.9537 8.14333 17.021 8.1439 17.1955C8.14446 17.3688 8.0265 17.4396 7.86079 17.439C7.27211 17.4367 6.68343 17.4367 6.09475 17.439C5.93016 17.4396 5.81052 17.3722 5.8094 17.1978C5.80827 17.0228 5.92623 16.9542 6.0925 16.9566C6.38684 16.96 6.68118 16.9577 6.97552 16.9577V16.9571Z" fill="black"/>
<path d="M6.97726 13.7434C6.68292 13.7434 6.38858 13.7423 6.09424 13.7434C5.9319 13.744 5.80889 13.6807 5.80945 13.5028C5.80945 13.3272 5.92966 13.2581 6.09312 13.2581C6.6818 13.2586 7.26992 13.2592 7.8586 13.2581C8.02206 13.2581 8.14283 13.3266 8.14395 13.501C8.14508 13.6772 8.02374 13.7446 7.86028 13.7434C7.56594 13.7417 7.2716 13.7434 6.97726 13.7434Z" fill="black"/>
<path d="M9.37578 13.7428C9.20782 13.7428 9.04043 13.7451 8.87248 13.7423C8.72755 13.74 8.62588 13.6703 8.62083 13.5143C8.61521 13.3485 8.71632 13.2633 8.87079 13.261C9.20614 13.2558 9.54148 13.2558 9.87683 13.261C10.0313 13.2633 10.133 13.3467 10.129 13.5125C10.1251 13.668 10.0246 13.7394 9.87908 13.7423C9.71168 13.7451 9.54373 13.7428 9.37578 13.7428Z" fill="black"/>
<path d="M9.3932 16.9577C9.55385 16.9577 9.7145 16.9566 9.87515 16.9577C10.0336 16.9589 10.1324 17.0395 10.129 17.2041C10.1257 17.3561 10.0285 17.4356 9.88133 17.4367C9.54598 17.4396 9.21064 17.4396 8.87529 17.4367C8.71857 17.4356 8.61859 17.3532 8.6214 17.1886C8.6242 17.0349 8.72082 16.9594 8.86911 16.9577C9.04381 16.956 9.2185 16.9577 9.3932 16.9577Z" fill="black"/>
<path d="M3.63559 12.7981C3.75524 12.6685 3.85691 12.5494 3.96757 12.44C4.07429 12.3346 4.19731 12.3265 4.30348 12.4365C4.40908 12.5465 4.39953 12.6737 4.29842 12.7825C4.12934 12.9645 3.95633 13.1429 3.77771 13.3156C3.67098 13.4193 3.55021 13.4181 3.43843 13.3168C3.38057 13.2644 3.30474 13.2155 3.28002 13.1481C3.24183 13.0462 3.20026 12.9144 3.23396 12.824C3.28227 12.6956 3.41708 12.6875 3.54066 12.7491C3.56482 12.7612 3.58785 12.7745 3.63559 12.7992V12.7981Z" fill="white"/>
<path d="M3.6423 17.0596C3.45693 17.0648 3.18282 16.7838 3.18675 16.6226C3.19124 16.4562 3.33336 16.3417 3.49401 16.4107C3.61422 16.4631 3.67039 16.42 3.74116 16.344C3.82318 16.2565 3.89788 16.1448 3.99955 16.0981C4.08269 16.0601 4.2366 16.0636 4.29333 16.1189C4.34838 16.173 4.3658 16.3555 4.31917 16.4142C4.14785 16.6289 3.94451 16.8178 3.74903 17.0112C3.71701 17.0429 3.66252 17.0504 3.6423 17.059V17.0596Z" fill="white"/>
</svg>
